<?xml version="1.0" standalone="no"?>
<!DOCTYPE svg PUBLIC "-//W3C//DTD SVG 20010904//EN"
 "http://www.w3.org/TR/2001/REC-SVG-20010904/DTD/svg10.dtd">
<svg version="1.0" xmlns="http://www.w3.org/2000/svg"
 width="4096.000000pt" height="4096.000000pt" viewBox="0 0 4096.000000 4096.000000"
 preserveAspectRatio="xMidYMid meet">
<metadata>
Created by potrace 1.11, written by Peter Selinger 2001-2013
</metadata>
<g transform="translate(0.000000,4096.000000) scale(0.100000,-0.100000)"
fill="#000000" stroke="none">
<path d="M19990 38174 c-30 -2 -136 -8 -235 -14 -1935 -113 -3873 -774 -5618
-1917 -2404 -1574 -4415 -4040 -5759 -7063 -906 -2037 -1485 -4263 -1717
-6600 -85 -856 -117 -1592 -108 -2515 7 -699 24 -1085 78 -1720 376 -4487
2074 -8639 4744 -11600 1194 -1325 2534 -2365 3995 -3100 1413 -711 2808
-1095 4385 -1207 240 -17 1130 -17 1370 0 1577 112 2972 496 4385 1207 2673
1346 4961 3736 6546 6840 1276 2499 2036 5343 2229 8335 53 839 59 1922 14
2720 -103 1833 -399 3553 -900 5217 -1138 3787 -3263 6985 -5994 9023 -1307
975 -2745 1675 -4210 2050 -674 173 -1283 273 -1985 326 -190 14 -1075 27
-1220 18z m820 -1154 c1797 -73 3515 -620 5109 -1627 809 -511 1713 -1301
2487 -2173 1310 -1474 2390 -3304 3154 -5345 728 -1944 1162 -4022 1295 -6195
19 -316 35 -695 35 -837 l0 -113 -12445 0 -12445 0 0 113 c0 228 33 863 66
1272 324 4049 1730 7797 3965 10570 884 1097 1960 2089 2940 2708 1811 1145
3833 1708 5839 1627z m12060 -17837 c0 -72 -25 -464 -45 -723 -245 -3081
-1122 -6013 -2535 -8475 -959 -1671 -2159 -3104 -3500 -4179 -218 -175 -356
-277 -580 -428 -2126 -1438 -4543 -2047 -6950 -1752 -1597 195 -3143 785
-4570 1744 -873 587 -1851 1511 -2659 2515 -1109 1375 -2028 3013 -2701 4810
-678 1811 -1105 3759 -1265 5765 -20 259 -45 651 -45 723 l0 57 12425 0 12425
0 0 -57z"/>
</g>
</svg>
